<?xml version="1.0" encoding="utf-8"?><svg viewBox="0 0 30 30" xmlns="http://www.w3.org/2000/svg" xmlns:xlink="http://www.w3.org/1999/xlink"><style>:root>svg{display:none}:root>svg:target{display:block}</style><svg viewBox="0 0 16 16" fill="none" id="arrow" xmlns="http://www.w3.org/2000/svg"><path d="M8 1v14M15 8l-7 7-7-7" stroke="#fff" stroke-width="2" stroke-linecap="round" stroke-linejoin="round"/></svg><svg viewBox="0 0 25 25" id="arrow-down" xmlns="http://www.w3.org/2000/svg"><g clip-path="url(#bclip0)"><path fill-rule="evenodd" clip-rule="evenodd" d="M9 7.4l4.6 4.6L9 16.6l1.4 1.4 6-6-6-6L9 7.4z" fill="#2C2E3F" fill-opacity=".5"/></g><defs><clipPath id="bclip0"><path fill="#fff" transform="rotate(-90 13.5 4.5)" d="M0 0h12v7.4H0z"/></clipPath></defs></svg><svg viewBox="0 0 24 25" id="close" xmlns="http://www.w3.org/2000/svg"><path d="M1 23.721L23 1m0 22.721L1 1" stroke="#141517" stroke-opacity=".2" stroke-linecap="round" stroke-linejoin="round"/></svg><svg viewBox="0 0 26 20" id="mail" xmlns="http://www.w3.org/2000/svg"><path d="M24.227 0H1.773C.768 0 0 .765 0 1.765v16.47C0 19.235.768 20 1.773 20h22.454C25.232 20 26 19.235 26 18.235V1.765C26 .765 25.232 0 24.227 0zm0 17l-4.668-4.647a.86.86 0 00-1.24 0 .85.85 0 000 1.235l4.667 4.647H3.014l4.668-4.647a.85.85 0 000-1.235.86.86 0 00-1.241 0L1.773 17V5.706l10.636 8a.955.955 0 00.532.176.955.955 0 00.532-.176l10.754-8V17zm0-15.235V3.47l-11.286 8.352L1.773 3.471V1.765h22.454z"/></svg><svg viewBox="0 0 22 22" id="mark" xmlns="http://www.w3.org/2000/svg"><path fill-rule="evenodd" clip-rule="evenodd" d="M17.614 5.21a1 1 0 01.175 1.404l-7.775 10a1 1 0 01-1.476.112l-4.226-4a1 1 0 111.375-1.452l3.425 3.242 7.098-9.13a1 1 0 011.404-.175z"/></svg><svg fill="none" viewBox="0 0 30 30" id="menu" xmlns="http://www.w3.org/2000/svg"><path fill-rule="evenodd" clip-rule="evenodd" d="M3.75 21h22.5v-1H3.75v1zm0-6.25h22.5v-1H3.75v1zm0-7.25v1h22.5v-1H3.75z" fill="#fff"/></svg><svg viewBox="0 0 30 30" id="phone" xmlns="http://www.w3.org/2000/svg"><path fill-rule="evenodd" clip-rule="evenodd" d="M11.14 4.615c-.034 0-.1.007-.206.039l-.009.002c-.792.228-1.376.589-1.83 1.228l-.006.009-.006.008c-.536.724-.763 1.655-.692 2.662v.002c.043.615.129 1.286.306 1.933 1.225 4.216 3.254 7.94 6.065 11.144.577.65 1.318 1.224 2.078 1.67l.005.002c1.033.614 2.56.352 3.531-.707l.008-.008c.243-.26.24-.373.24-.402-.003-.065-.043-.282-.414-.721-.277-.317-.571-.616-.89-.94l-.009-.009c-.308-.312-.639-.648-.957-1.013-.39-.416-.675-.598-.896-.664-.182-.054-.43-.064-.844.143-.352.182-.739.31-1.154.305a1.96 1.96 0 01-1.123-.376 3.557 3.557 0 01-.726-.724 16.09 16.09 0 01-.58-.812l-.026-.037-.005-.007c-.739-1.116-1.166-2.001-1.428-2.544l-.092-.19c-.398-.781-.772-1.572-.807-2.355-.04-.908.363-1.625 1.02-2.276a2.13 2.13 0 00.368-.6c.11-.266.14-.463.135-.554-.111-.893-.341-1.711-.59-2.598-.12-.427-.244-.87-.362-1.344a.943.943 0 00-.103-.266zm1.002-1.736c.582.345.881.936 1.033 1.52l.002.01c.087.349.192.723.301 1.115.27.966.57 2.038.7 3.097l.002.018.002.017c.046.536-.101 1.082-.282 1.514a4.057 4.057 0 01-.774 1.216l-.009.01-.01.01c-.426.42-.449.626-.442.777.013.28.163.69.592 1.531l.003.007.004.007.101.21c.259.536.63 1.305 1.287 2.297.211.308.372.542.52.732.151.192.246.28.3.318l.007.005a.85.85 0 00.215-.085l.01-.005c.765-.385 1.536-.5 2.302-.273.725.216 1.312.702 1.808 1.237l.011.011.01.012c.28.32.575.62.895.945l.01.01c.31.316.646.656.968 1.025l.005.006.005.005c.497.587.873 1.238.899 1.968.026.763-.335 1.366-.772 1.834-1.487 1.616-4.015 2.237-5.999 1.06-.905-.53-1.824-1.234-2.568-2.074l-.004-.004c-3.015-3.435-5.188-7.43-6.493-11.927l-.002-.007-.002-.007a11.994 11.994 0 01-.375-2.337c-.098-1.385.205-2.81 1.071-3.983.765-1.075 1.765-1.651 2.883-1.973.55-.162 1.197-.199 1.786.15z"/></svg></svg>