<svg viewBox="0 0 30 30" xmlns="http://www.w3.org/2000/svg">
<path fill-rule="evenodd" clip-rule="evenodd" d="M11.1409 4.61458C11.1058 4.61501 11.0404 4.62214 10.9336 4.65382L10.9251 4.65635C10.1332 4.88355 9.54867 5.2445 9.09502 5.88446L9.08895 5.89301L9.08271 5.90144C8.54663 6.62464 8.31985 7.55589 8.39095 8.5634L8.39107 8.56501C8.43352 9.18043 8.51957 9.85124 8.69663 10.4984C9.92156 14.7135 11.9511 18.4386 14.7617 21.6416C15.3386 22.2917 16.0797 22.8661 16.8396 23.3115L16.8448 23.3145C17.8783 23.9285 19.4049 23.6661 20.3764 22.6074L20.3838 22.5993C20.6274 22.3397 20.6245 22.2257 20.6235 22.1966C20.6213 22.1323 20.5809 21.9151 20.2097 21.4757C19.9327 21.1585 19.6389 20.8599 19.3204 20.5365L19.311 20.5271C19.0035 20.2149 18.6724 19.8788 18.3535 19.5142C17.9646 19.0978 17.6789 18.9159 17.4576 18.85C17.2757 18.7959 17.0273 18.7864 16.6143 18.9932C16.262 19.1747 15.8753 19.3027 15.4597 19.298C15.0222 19.293 14.648 19.1421 14.3368 18.9223C14.0454 18.7165 13.8083 18.4498 13.6113 18.1985C13.4197 17.9542 13.2242 17.6689 13.0304 17.386L13.0049 17.3488L13.0005 17.3422C12.2611 16.2264 11.8341 15.341 11.5722 14.7981C11.5388 14.7288 11.5081 14.6651 11.4798 14.6073C11.0825 13.827 10.7078 13.0365 10.6728 12.2532C10.6323 11.3452 11.0359 10.628 11.6931 9.97723C11.8081 9.85481 11.9522 9.63621 12.061 9.3762C12.1717 9.11139 12.2001 8.91357 12.1958 8.82275C12.0847 7.9301 11.8548 7.11167 11.6057 6.22451C11.4859 5.79794 11.3616 5.35548 11.2439 4.88124C11.2039 4.72833 11.1639 4.65023 11.1409 4.61458ZM12.1416 2.87862C12.7243 3.22432 13.0233 3.81475 13.1746 4.39813L13.1773 4.40877C13.2638 4.75769 13.3686 5.13217 13.4783 5.52418C13.7487 6.49001 14.0488 7.56234 14.178 8.62145L14.1801 8.63857L14.1816 8.65575C14.2285 9.19202 14.0808 9.73843 13.9004 10.1697C13.7155 10.6118 13.4452 11.0548 13.1265 11.3864L13.1171 11.3962L13.1074 11.4057C12.6814 11.8251 12.6584 12.0319 12.6651 12.1834C12.6776 12.4627 12.8277 12.8725 13.2565 13.7143L13.26 13.7213L13.2635 13.7283C13.2955 13.7936 13.3292 13.8635 13.3651 13.9378C13.6239 14.4738 13.9953 15.2428 14.6522 16.2351C14.863 16.5426 15.024 16.7771 15.1725 16.9665C15.3235 17.1591 15.4176 17.2465 15.4719 17.2849C15.4746 17.2868 15.477 17.2884 15.4791 17.2898C15.5089 17.284 15.5769 17.2652 15.6938 17.2047L15.7035 17.1997C16.4687 16.8147 17.2399 16.6994 18.0057 16.9273C18.7307 17.143 19.3177 17.629 19.8144 18.1637L19.8253 18.1754L19.8358 18.1875C20.1142 18.5067 20.4096 18.8069 20.73 19.1322L20.7394 19.1417C21.0505 19.4575 21.3858 19.7978 21.7081 20.1674L21.7128 20.1728L21.7175 20.1783C22.2148 20.7651 22.5909 21.4163 22.6166 22.146C22.6434 22.909 22.2818 23.5124 21.8446 23.9796C20.3582 25.596 17.8303 26.2172 15.8461 25.0403C14.9405 24.5093 14.0224 23.8062 13.2776 22.9662L13.2741 22.9623C10.259 19.5268 8.08625 15.5322 6.78058 11.0353L6.77853 11.0282L6.77657 11.0211C6.55025 10.1971 6.44954 9.37948 6.40154 8.68364C6.30411 7.29881 6.60722 5.8739 7.47324 4.70071C8.2379 3.62642 9.238 3.04978 10.356 2.72832C10.9055 2.56614 11.5526 2.52919 12.1416 2.87862Z"/>
</svg>
